<svg xmlns="http://www.w3.org/2000/svg" viewBox="0 0 80 80">
  <circle cx="40" cy="40" r="36" fill="#2C6BED" />
  <path d="M40 22C29.5 22 21 30.5 21 41C21 46.5 23.5 51.5 27.5 54.5L25.5 59.5L32 56.5C34.5 58 37 58.5 40 58.5C50.5 58.5 59 50 59 39.5C59 29 50.5 22 40 22Z" fill="white" />
  <path d="M31.5 45.5C30.7 45.5 30 45.3 29.3 45C28.6 44.7 28 44.2 27.5 43.6C27 43 26.7 42.3 26.5 41.5C26.3 40.7 26.3 39.9 26.5 39.1C26.7 38.3 27 37.6 27.5 37C28 36.4 28.6 35.9 29.3 35.6C30 35.3 30.7 35.1 31.5 35.1C32.3 35.1 33 35.3 33.7 35.6C34.4 35.9 35 36.4 35.5 37C36 37.6 36.3 38.3 36.5 39.1C36.7 39.9 36.7 40.7 36.5 41.5C36.3 42.3 36 43 35.5 43.6C35 44.2 34.4 44.7 33.7 45C33 45.3 32.3 45.5 31.5 45.5Z" fill="#2C6BED" />
  <path d="M48.5 45.5C47.7 45.5 47 45.3 46.3 45C45.6 44.7 45 44.2 44.5 43.6C44 43 43.7 42.3 43.5 41.5C43.3 40.7 43.3 39.9 43.5 39.1C43.7 38.3 44 37.6 44.5 37C45 36.4 45.6 35.9 46.3 35.6C47 35.3 47.7 35.1 48.5 35.1C49.3 35.1 50 35.3 50.7 35.6C51.4 35.9 52 36.4 52.5 37C53 37.6 53.3 38.3 53.5 39.1C53.7 39.9 53.7 40.7 53.5 41.5C53.3 42.3 53 43 52.5 43.6C52 44.2 51.4 44.7 50.7 45C50 45.3 49.3 45.5 48.5 45.5Z" fill="#2C6BED" />
</svg>